<svg width="1605" height="903" viewBox="0 0 1605 903" fill="none" xmlns="http://www.w3.org/2000/svg">
<g clip-path="url(#clip0_5_799)">
<path d="M1182.67 291.887C1182.67 352.906 1091.58 532.854 1039.35 631.015C1035.81 637.675 1030.63 643.223 1024.35 647.086C1018.07 650.949 1010.93 652.985 1003.65 652.985C996.365 652.985 989.216 650.949 982.939 647.086C976.662 643.223 971.484 637.675 967.942 631.015C915.713 532.854 824.621 352.906 824.621 291.887C824.621 206.345 904.773 137 1003.65 137C1102.52 137 1182.67 206.345 1182.67 291.887Z" fill="#0EA5E9"/>
<path d="M1004.49 392.211C1058.33 392.211 1101.98 346.506 1101.98 290.127C1101.98 233.747 1058.33 188.042 1004.49 188.042C950.64 188.042 906.989 233.747 906.989 290.127C906.989 346.506 950.64 392.211 1004.49 392.211Z" fill="white"/>
<path d="M597.638 382.494C629.889 382.494 656.034 355.119 656.034 321.35C656.034 287.58 629.889 260.205 597.638 260.205C565.386 260.205 539.241 287.58 539.241 321.35C539.241 355.119 565.386 382.494 597.638 382.494Z" fill="#FF6584"/>
<path d="M1003.65 773C1081.71 773 1145 767.884 1145 761.574C1145 755.264 1081.71 750.148 1003.65 750.148C925.576 750.148 862.288 755.264 862.288 761.574C862.288 767.884 925.576 773 1003.65 773Z" fill="#0EA5E9"/>
<path opacity="0.4" d="M585.748 375.725C588.72 356.549 576.282 338.48 557.967 335.368C539.652 332.256 522.396 345.279 519.423 364.456C516.451 383.633 528.889 401.701 547.204 404.813C565.519 407.925 582.776 394.902 585.748 375.725Z" fill="#7DD3FC"/>
<path d="M1338.59 551.551C1074.03 447.707 751.344 548.946 565.041 756.037C563.982 757.199 562.923 758.378 561.898 759.557H559.057C560.032 758.378 561.04 757.199 562.032 756.037C752.201 533.194 1070.6 444.38 1338.59 551.551Z" fill="#3F3D56"/>
<path d="M1410.89 585.997C1387.51 572.938 1363.36 561.434 1338.59 551.552C1363.43 561.271 1387.58 572.78 1410.89 585.997V585.997Z" fill="#3F3D56"/>
<path opacity="0.4" d="M1266.09 482.39C1286.44 482.39 1302.94 465.117 1302.94 443.809C1302.94 422.501 1286.44 405.228 1266.09 405.228C1245.74 405.228 1229.25 422.501 1229.25 443.809C1229.25 465.117 1245.74 482.39 1266.09 482.39Z" fill="#7DD3FC"/>
<path d="M1270.2 740.569C1273.04 751.59 1282.8 758.416 1282.8 758.416C1282.8 758.416 1287.93 747.372 1285.09 736.351C1282.24 725.33 1272.49 718.504 1272.49 718.504C1272.49 718.504 1267.35 729.547 1270.2 740.569Z" fill="#3F3D56"/>
<path d="M1274.38 738.2C1282.19 746.164 1283.15 758.407 1283.15 758.407C1283.15 758.407 1271.44 757.737 1263.62 749.773C1255.81 741.809 1254.85 729.566 1254.85 729.566C1254.85 729.566 1266.57 730.236 1274.38 738.2Z" fill="#0EA5E9"/>
<path d="M485.648 587.325V604.328L484.841 605.243V587.149C485.11 587.202 485.379 587.273 485.648 587.325Z" fill="#3F3D56"/>
<path d="M537.389 756.03C537.153 756.435 536.901 756.839 536.649 757.244H484.841V588.171L485.648 587.326L492.523 595.511V583.542H514.376V621.525L536.447 647.767L536.649 648.014C536.918 648.894 537.17 649.774 537.422 650.654C537.424 650.667 537.43 650.68 537.439 650.689C540.749 661.78 543.465 673.057 545.575 684.465C550.383 711.377 549.66 736.053 537.389 756.03Z" fill="#CCCCCC"/>
<path d="M503.032 680.782H489.123V692.919H503.032V680.782Z" fill="#3F3D56"/>
<path d="M503.032 702.627H489.123V714.763H503.032V702.627Z" fill="#3F3D56"/>
<path d="M931.491 657.722L924.537 645.587L989.446 587.332C1037.43 563.147 1095.28 570.125 1156.36 587.332V604.322L1096.08 672.287L1026.54 686.85L931.491 657.722Z" fill="#3F3D56"/>
<path d="M1185.09 621.517C1196.62 608.093 1198.22 595.327 1185.09 583.54H1163.24V595.516L1156.36 587.331L1100.72 645.586L1091.45 655.295L1079.86 703.841L1100.72 757.24H1207.36V648.013L1185.09 621.517Z" fill="#CCCCCC"/>
<path d="M924.537 645.586H1100.72V757.241H924.537C903.222 733.095 914.295 689.086 924.537 645.586Z" fill="#F2F2F2"/>
<path d="M1076.38 680.782H1039.29V714.764H1076.38V680.782Z" fill="#3F3D56"/>
<path d="M1024.22 679.568H991.764V757.241H1024.22V679.568Z" fill="#CCCCCC"/>
<path d="M954.673 691.705V679.569H940.765V691.705H953.513H954.673Z" fill="#3F3D56"/>
<path d="M953.513 701.413H940.765V713.551H954.673V701.413H953.513Z" fill="#3F3D56"/>
<path d="M977.855 679.568H963.946V691.705H977.855V679.568Z" fill="#3F3D56"/>
<path d="M977.855 701.414H963.946V713.55H977.855V701.414Z" fill="#3F3D56"/>
<path d="M1150.56 692.92V680.782H1136.65V692.92H1149.4H1150.56Z" fill="#3F3D56"/>
<path d="M1149.4 702.628H1136.65V714.764H1150.56V702.628H1149.4Z" fill="#3F3D56"/>
<path d="M1173.74 680.782H1159.83V692.919H1173.74V680.782Z" fill="#3F3D56"/>
<path d="M1173.74 702.627H1159.83V714.763H1173.74V702.627Z" fill="#3F3D56"/>
<path d="M617.783 453.832L606.193 444.122L671.102 383.439H835.694V436.84L729.057 512.087L617.783 453.832Z" fill="#3F3D56"/>
<path d="M865.702 417.478V384.651H843.85V392.691L835.693 383.438L782.374 444.121L761.512 458.685L729.161 706.158L777.948 757.241H891.33C908.703 665.738 922.479 571.738 891.33 446.548L865.702 417.478Z" fill="#CCCCCC"/>
<path d="M606.192 444.122H782.375V757.242H606.192C586.912 635.597 577.497 522.789 606.192 444.122Z" fill="#F2F2F2"/>
<path d="M707.034 680.782H674.579V757.242H707.034V680.782Z" fill="#CCCCCC"/>
<path d="M639.806 702.628V690.492H625.897V702.628H638.647H639.806Z" fill="#3F3D56"/>
<path d="M638.647 712.337H625.897V724.474H639.806V712.337H638.647Z" fill="#3F3D56"/>
<path d="M662.988 690.491H649.079V702.628H662.988V690.491Z" fill="#3F3D56"/>
<path d="M733.694 712.337H720.943V724.474H734.852V712.337H733.694Z" fill="#3F3D56"/>
<path d="M758.034 690.491H744.125V702.628H758.034V690.491Z" fill="#3F3D56"/>
<path d="M758.034 712.337H744.125V724.473H758.034V712.337Z" fill="#3F3D56"/>
<path d="M832.216 459.898V447.763H818.307V459.898H831.058H832.216Z" fill="#3F3D56"/>
<path d="M831.058 469.609H818.307V481.745H832.216V469.609H831.058Z" fill="#3F3D56"/>
<path d="M855.398 447.763H841.489V459.899H855.398V447.763Z" fill="#3F3D56"/>
<path d="M855.398 469.608H841.489V481.745H855.398V469.608Z" fill="#3F3D56"/>
<path d="M832.216 527.864V515.727H818.307V527.864H831.058H832.216Z" fill="#3F3D56"/>
<path d="M831.058 537.573H818.307V549.709H832.216V537.573H831.058Z" fill="#3F3D56"/>
<path d="M855.398 515.727H841.489V527.863H855.398V515.727Z" fill="#3F3D56"/>
<path d="M855.398 537.572H841.489V549.709H855.398V537.572Z" fill="#3F3D56"/>
<path d="M832.216 595.828V583.69H818.307V595.828H831.058H832.216Z" fill="#3F3D56"/>
<path d="M831.058 605.537H818.307V617.673H832.216V605.537H831.058Z" fill="#3F3D56"/>
<path d="M855.398 583.69H841.489V595.827H855.398V583.69Z" fill="#3F3D56"/>
<path d="M855.398 605.536H841.489V617.673H855.398V605.536Z" fill="#3F3D56"/>
<path d="M832.216 663.792V651.654H818.307V663.792H831.058H832.216Z" fill="#3F3D56"/>
<path d="M831.058 673.5H818.307V685.636H832.216V673.5H831.058Z" fill="#3F3D56"/>
<path d="M855.398 651.654H841.489V663.791H855.398V651.654Z" fill="#3F3D56"/>
<path d="M855.398 673.5H841.489V685.636H855.398V673.5Z" fill="#3F3D56"/>
<path d="M625.896 459.899H760.352V489.027C717.255 476.573 672.313 477.466 625.896 489.027V459.899Z" fill="#3F3D56"/>
<path d="M625.896 518.154C667.862 531.1 712.68 531.1 760.352 518.154V547.282H625.896V518.154Z" fill="#3F3D56"/>
<path d="M625.896 576.408H760.352V605.536C714.53 590.215 669.664 589.493 625.896 605.536V576.408Z" fill="#3F3D56"/>
<path d="M625.896 634.663C669.747 652.358 714.605 651.622 760.352 634.663V663.791H625.896V634.663Z" fill="#3F3D56"/>
<path d="M1348.53 584.061H1443V631.723L1434.56 634.488L1406.49 643.661L1362.45 632.979L1318.46 622.305L1295.22 616.67L1283.63 612.177C1293.27 598.314 1310.82 587.412 1348.53 584.061Z" fill="#3F3D56"/>
<path d="M1443 612.177V757.244H1283.63C1283.58 757.154 1283.54 757.073 1283.49 756.983V756.975C1283.45 756.874 1283.41 756.776 1283.36 756.681C1280.87 751.438 1278.64 746.208 1276.67 740.992C1259.94 696.852 1261.76 653.879 1283.63 612.177H1443Z" fill="#F2F2F2"/>
<path d="M1384.47 680.782H1352.01V757.242H1384.47V680.782Z" fill="#CCCCCC"/>
<path d="M1317.24 702.628V690.492H1303.33V702.628H1316.08H1317.24Z" fill="#3F3D56"/>
<path d="M1316.08 712.337H1303.33V724.474H1317.24V712.337H1316.08Z" fill="#3F3D56"/>
<path d="M1340.42 690.491H1326.51V702.628H1340.42V690.491Z" fill="#3F3D56"/>
<path d="M1340.42 712.337H1326.51V724.473H1340.42V712.337Z" fill="#3F3D56"/>
<path d="M1412.29 702.628V690.492H1398.38V702.628H1411.13H1412.29Z" fill="#3F3D56"/>
<path d="M1411.13 712.337H1398.38V724.474H1412.29V712.337H1411.13Z" fill="#3F3D56"/>
<path d="M1435.47 690.491H1421.56V702.628H1435.47V690.491Z" fill="#3F3D56"/>
<path d="M1435.47 712.337H1421.56V724.473H1435.47V712.337Z" fill="#3F3D56"/>
<path d="M1318.46 527.737H1338.44C1358.15 527.737 1377.05 535.934 1390.98 550.524C1404.91 565.114 1412.74 584.902 1412.74 605.536V605.536H1318.46V527.737Z" fill="#3F3D56"/>
<path d="M713.308 316.528H733.287C752.994 316.528 771.893 324.725 785.827 339.315C799.761 353.905 807.589 373.693 807.589 394.327V394.327H713.308V316.528Z" fill="#3F3D56"/>
<path d="M1032.69 511.896H1052.67C1072.38 511.896 1091.28 520.093 1105.21 534.683C1119.15 549.273 1126.98 569.061 1126.98 589.695V589.695H1032.69V511.896Z" fill="#3F3D56"/>
<path d="M1412.74 634.663H1318.46V663.79H1412.74V634.663Z" fill="#3F3D56"/>
<path d="M1443 756.037H484.842V759.557H1443V756.037Z" fill="#3F3D56"/>
<path d="M573.212 616.983H569.85V756.03H573.212V616.983Z" fill="#3F3D56"/>
<path d="M604.239 634.703C604.453 683.324 571.783 722.898 571.783 722.898C571.783 722.898 529.944 682.799 538.552 635.02C547.208 586.968 574.187 547.029 571.008 546.825C571.008 546.825 604.025 586.082 604.239 634.703Z" fill="#0EA5E9"/>
<path d="M909.408 616.983H906.046V756.03H909.408V616.983Z" fill="#3F3D56"/>
<path d="M940.435 634.703C943.465 683.221 907.979 722.898 907.979 722.898C907.979 722.898 874.962 683.641 874.748 635.02C874.534 586.399 907.204 546.825 907.204 546.825C904.019 560.153 937.983 595.446 940.435 634.703Z" fill="#0EA5E9"/>
<path d="M690.985 390.96L837.018 383.479L898.278 437.019L887.448 447.258L790.44 444.971L690.985 390.96Z" fill="#3F3D56"/>
<path d="M545.272 639.424L537.406 646.87L536.447 647.767L534.447 649.668L484.841 648.506V587.15C483.227 586.78 481.614 586.428 480 586.094L484.018 585.883L484.841 586.604L492.523 593.31L514.376 612.425L538.784 633.757L545.272 639.424Z" fill="#3F3D56"/>
<path d="M1010.37 593.369L1156.4 585.889L1217.66 639.429L1206.83 649.667L1109.83 647.381L1010.37 593.369Z" fill="#3F3D56"/>
</g>
<g clip-path="url(#clip1_5_799)">
<path d="M1527.48 150.942C1523.76 152.312 1517.22 153.438 1509.66 154.344C1489.08 156.81 1460.89 157.685 1460.89 157.685C1460.89 157.685 1315.98 169.691 1207.36 125.039C1207.36 125.039 1191.57 116.766 1206.22 105.632C1208.48 103.968 1210.88 102.506 1213.39 101.263L1213.57 101.084C1215.24 99.5455 1217.04 98.1587 1218.95 96.9405C1224.58 93.3064 1234.08 88.9987 1245.65 90.9509L1530.91 137.037C1530.91 137.037 1541.33 145.831 1527.48 150.942Z" fill="#3F3D56"/>
<path d="M1470.64 130.055L1530.36 87.7324L1556.68 92.2798L1530.91 137.038C1530.91 137.038 1471.33 137.514 1470.64 130.055Z" fill="#3F3D56"/>
<path d="M1320.3 104.342L1439.25 71.0186L1458.42 75.0218L1404.69 99.1666L1387.9 117.935L1320.3 104.342Z" fill="#3F3D56"/>
<path d="M1509.66 154.344C1489.08 156.81 1460.89 157.685 1460.89 157.685C1460.89 157.685 1315.98 169.691 1207.36 125.039C1207.36 125.039 1191.57 116.766 1206.22 105.632L1206.27 105.837C1206.27 105.837 1229.71 121.66 1341.68 134.868L1509.66 154.344Z" fill="#0EA5E9"/>
<path d="M1490.54 153.431L1543.72 175.121L1557.08 173.641L1525.27 149.758C1525.27 149.758 1486.79 141.558 1490.54 153.431Z" fill="#3F3D56"/>
<path d="M1225.55 108.155C1223.02 108.197 1217.2 103.946 1213.59 101.084C1215.26 99.5455 1217.06 98.1586 1218.97 96.9404C1221.89 99.1742 1227.07 102.789 1229.95 102.648C1234.12 102.477 1229.38 108.086 1225.55 108.155Z" fill="#6C63FF"/>
<path d="M1467.16 228.407L1433.01 230.192L1337.01 165.532L1319.19 153.526L1310.54 147.693C1326.78 133.993 1393.04 152.887 1393.04 152.887C1394.3 153.956 1394.71 155.733 1394.65 157.697C1394.54 161.373 1392.81 165.688 1392.14 167.241C1391.98 167.621 1391.88 167.823 1391.88 167.823L1467.16 228.407Z" fill="#3F3D56"/>
<path d="M1354.71 194.882L1348.78 198.627L1352.37 192.108C1351.36 191.298 1350.1 190.85 1348.8 190.833H1348.7C1348.29 190.841 1347.88 190.811 1347.48 190.742L1345.47 192.013L1346.33 190.453C1344.91 189.955 1343.68 189.023 1342.83 187.789L1339.24 190.072L1341.5 185.955C1339.41 183.44 1336.58 181.898 1333.47 181.898C1329.74 181.898 1326.42 184.113 1324.27 187.568C1323.64 188.603 1322.74 189.451 1321.67 190.026C1320.6 190.601 1319.39 190.882 1318.18 190.841H1317.98C1313.86 190.841 1310.53 195.502 1310.53 201.256C1310.53 207.01 1313.86 211.671 1317.98 211.671C1318.89 211.668 1319.78 211.445 1320.57 211.021C1321.98 210.341 1323.51 209.974 1325.07 209.943C1326.63 209.913 1328.17 210.221 1329.6 210.846C1330.81 211.384 1332.11 211.662 1333.44 211.662C1334.76 211.662 1336.06 211.384 1337.27 210.846C1338.69 210.233 1340.22 209.931 1341.76 209.96C1343.3 209.99 1344.82 210.35 1346.21 211.017C1347.01 211.431 1347.89 211.649 1348.78 211.652C1352.9 211.652 1356.24 206.991 1356.24 201.237C1356.27 199.024 1355.74 196.839 1354.71 194.882Z" fill="#F2F2F2"/>
<path opacity="0.03" d="M1343.56 210.123C1341.41 209.717 1339.19 209.958 1337.18 210.816C1335.97 211.355 1334.66 211.634 1333.34 211.634C1332.02 211.634 1330.71 211.355 1329.51 210.816C1328.08 210.189 1326.53 209.881 1324.98 209.911C1323.42 209.941 1321.88 210.31 1320.48 210.991C1319.68 211.414 1318.79 211.637 1317.89 211.641C1314.23 211.641 1311.18 207.958 1310.55 203.102C1311.28 202.571 1311.9 201.903 1312.38 201.135C1314.53 197.683 1317.85 195.469 1321.58 195.469C1325.31 195.469 1328.59 197.638 1330.73 201.063C1331.37 202.095 1332.27 202.945 1333.33 203.529C1334.4 204.114 1335.6 204.414 1336.81 204.4H1336.91C1339.82 204.392 1342.34 206.721 1343.56 210.123Z" fill="black"/>
<path d="M1521.95 189.936L1516.02 193.68L1519.61 187.162C1518.59 186.352 1517.34 185.903 1516.04 185.887H1515.94C1515.53 185.895 1515.12 185.865 1514.71 185.796L1512.71 187.067L1513.57 185.507C1512.15 185.009 1510.92 184.077 1510.06 182.843L1506.48 185.126L1508.74 181.009C1506.65 178.493 1503.82 176.952 1500.71 176.952C1496.98 176.952 1493.66 179.167 1491.51 182.622C1490.87 183.657 1489.98 184.505 1488.91 185.08C1487.83 185.654 1486.63 185.936 1485.42 185.895H1485.22C1481.1 185.895 1477.76 190.556 1477.76 196.31C1477.76 202.064 1481.1 206.725 1485.22 206.725C1486.12 206.722 1487.01 206.499 1487.81 206.074C1489.21 205.395 1490.75 205.027 1492.31 204.997C1493.86 204.967 1495.41 205.275 1496.84 205.899C1498.04 206.437 1499.35 206.716 1500.67 206.716C1501.99 206.716 1503.3 206.437 1504.51 205.899C1505.92 205.286 1507.46 204.985 1509 205.014C1510.54 205.044 1512.06 205.404 1513.45 206.071C1514.24 206.485 1515.13 206.702 1516.02 206.706C1520.14 206.706 1523.48 202.045 1523.48 196.291C1523.51 194.078 1522.98 191.893 1521.95 189.936V189.936Z" fill="#F2F2F2"/>
<path opacity="0.03" d="M1510.8 205.176C1508.65 204.769 1506.43 205.01 1504.41 205.868C1503.21 206.408 1501.9 206.687 1500.58 206.687C1499.26 206.687 1497.95 206.408 1496.75 205.868C1495.32 205.242 1493.77 204.933 1492.21 204.964C1490.66 204.994 1489.12 205.362 1487.72 206.043C1486.92 206.467 1486.03 206.69 1485.12 206.694C1481.47 206.694 1478.42 203.011 1477.79 198.155C1478.52 197.624 1479.14 196.956 1479.62 196.188C1481.76 192.736 1485.08 190.521 1488.81 190.521C1492.54 190.521 1495.83 192.691 1497.97 196.115C1498.61 197.15 1499.51 198.002 1500.58 198.587C1501.65 199.172 1502.85 199.47 1504.07 199.453H1504.16C1507.05 199.445 1509.58 201.774 1510.8 205.176Z" fill="black"/>
<path d="M1521.95 65.1205L1516.02 68.865L1519.61 62.3464C1518.59 61.5366 1517.34 61.088 1516.04 61.0716H1515.94C1515.53 61.0797 1515.12 61.0491 1514.71 60.9803L1512.71 62.2513L1513.57 60.6911C1512.15 60.1934 1510.92 59.2613 1510.06 58.0274L1506.48 60.3106L1508.74 56.1932C1506.65 53.6779 1503.82 52.1367 1500.71 52.1367C1496.98 52.1367 1493.66 54.3514 1491.51 57.8067C1490.87 58.8414 1489.98 59.6893 1488.91 60.2641C1487.83 60.839 1486.63 61.1202 1485.42 61.0793H1485.22C1481.1 61.0793 1477.76 65.7408 1477.76 71.4945C1477.76 77.2481 1481.1 81.9097 1485.22 81.9097C1486.12 81.9068 1487.01 81.6834 1487.81 81.2589C1489.21 80.5795 1490.75 80.212 1492.31 80.1818C1493.86 80.1515 1495.41 80.4593 1496.84 81.0839C1498.04 81.625 1499.35 81.9064 1500.67 81.9097C1501.99 81.9129 1503.3 81.6381 1504.51 81.1029C1505.92 80.4901 1507.46 80.1882 1509 80.2177C1510.54 80.2473 1512.06 80.6075 1513.45 81.2742C1514.24 81.6881 1515.13 81.906 1516.02 81.9097C1520.14 81.9097 1523.48 77.2481 1523.48 71.4945C1523.51 69.2751 1522.98 67.0832 1521.95 65.1205V65.1205Z" fill="#F2F2F2"/>
<path opacity="0.03" d="M1510.8 80.3614C1508.65 79.9548 1506.43 80.1959 1504.41 81.0539C1503.21 81.5934 1501.9 81.8722 1500.58 81.8722C1499.26 81.8722 1497.95 81.5934 1496.75 81.0539C1495.32 80.4276 1493.77 80.1189 1492.21 80.1491C1490.66 80.1793 1489.12 80.5478 1487.72 81.229C1486.92 81.6522 1486.03 81.8755 1485.12 81.8797C1481.47 81.8797 1478.42 78.1961 1477.79 73.3405C1478.52 72.8097 1479.14 72.1415 1479.62 71.3732C1481.76 67.9217 1485.08 65.707 1488.81 65.707C1492.54 65.707 1495.83 67.8761 1497.97 71.3009C1498.61 72.3359 1499.51 73.1874 1500.58 73.7723C1501.65 74.3572 1502.85 74.6555 1504.07 74.6381H1504.16C1507.05 74.6305 1509.58 76.9594 1510.8 80.3614Z" fill="black"/>
<path d="M1277.37 51.6539L1274.41 53.5224L1276.21 50.2726C1275.7 49.8664 1275.07 49.6413 1274.42 49.6333H1274.38C1274.17 49.6354 1273.97 49.6202 1273.76 49.5876L1272.77 50.2193L1273.19 49.4583C1272.48 49.2104 1271.87 48.7457 1271.44 48.1302L1269.66 49.2718L1270.8 47.2207C1270.32 46.6068 1269.72 46.1065 1269.02 45.7563C1268.33 45.4061 1267.57 45.2147 1266.79 45.1963C1264.93 45.1963 1263.28 46.2998 1262.22 48.0237C1261.9 48.5411 1261.45 48.965 1260.92 49.2518C1260.38 49.5387 1259.78 49.6782 1259.17 49.6561H1259.07C1257.02 49.6561 1255.36 51.985 1255.36 54.8542C1255.36 57.7234 1257.02 60.0485 1259.07 60.0485C1259.53 60.047 1259.97 59.936 1260.37 59.725C1261.07 59.385 1261.83 59.2011 1262.61 59.186C1263.39 59.1708 1264.16 59.3249 1264.87 59.6375C1265.47 59.9038 1266.12 60.0413 1266.78 60.0413C1267.43 60.0413 1268.08 59.9038 1268.68 59.6375C1269.39 59.3315 1270.15 59.1809 1270.92 59.196C1271.69 59.2111 1272.45 59.3915 1273.14 59.725C1273.54 59.9296 1273.98 60.0379 1274.42 60.0409C1276.48 60.0409 1278.14 57.7158 1278.14 54.8466C1278.16 53.7344 1277.89 52.6365 1277.37 51.6539Z" fill="#F2F2F2"/>
<path opacity="0.03" d="M1271.81 59.2571C1270.74 59.0517 1269.63 59.1723 1268.62 59.6034C1268.02 59.8681 1267.37 60.0055 1266.72 60.0068C1266.05 60.0066 1265.4 59.8652 1264.79 59.592C1264.08 59.2807 1263.31 59.1277 1262.53 59.1435C1261.75 59.1592 1260.99 59.3434 1260.29 59.6833C1259.89 59.8943 1259.45 60.0053 1259 60.0068C1257.17 60.0068 1255.65 58.1688 1255.34 55.7486C1255.7 55.4818 1256.01 55.1487 1256.25 54.7668C1257.32 53.043 1258.97 51.9395 1260.82 51.9395C1262.67 51.9395 1264.32 53.0316 1265.39 54.7326C1265.71 55.2498 1266.16 55.6751 1266.7 55.9666C1267.23 56.2581 1267.83 56.4059 1268.44 56.3955H1268.49C1269.93 56.3955 1271.2 57.5599 1271.81 59.2571Z" fill="black"/>
<path d="M1540.22 237.734L1537.27 239.602L1539.06 236.353C1538.56 235.946 1537.93 235.721 1537.28 235.713H1537.23C1537.03 235.715 1536.82 235.7 1536.62 235.668L1535.62 236.299L1536.05 235.538C1535.34 235.29 1534.73 234.826 1534.3 234.21L1532.51 235.352L1533.66 233.301C1533.18 232.687 1532.57 232.187 1531.88 231.836C1531.19 231.486 1530.42 231.295 1529.65 231.276C1527.79 231.276 1526.13 232.38 1525.08 234.104C1524.76 234.621 1524.31 235.045 1523.77 235.332C1523.24 235.619 1522.64 235.758 1522.03 235.736H1521.93C1519.88 235.736 1518.21 238.065 1518.21 240.934C1518.21 243.804 1519.88 246.129 1521.93 246.129C1522.38 246.127 1522.83 246.016 1523.23 245.805C1523.92 245.465 1524.69 245.281 1525.47 245.266C1526.24 245.251 1527.02 245.405 1527.73 245.718C1528.33 245.984 1528.98 246.121 1529.63 246.121C1530.29 246.121 1530.94 245.984 1531.54 245.718C1532.24 245.412 1533.01 245.261 1533.78 245.276C1534.55 245.291 1535.3 245.472 1536 245.805C1536.39 246.01 1536.83 246.118 1537.28 246.121C1539.33 246.121 1541 243.796 1541 240.927C1541.01 239.814 1540.75 238.717 1540.22 237.734V237.734Z" fill="#F2F2F2"/>
<path opacity="0.03" d="M1534.67 245.337C1533.59 245.132 1532.48 245.252 1531.48 245.683C1530.88 245.948 1530.23 246.086 1529.57 246.087C1528.91 246.087 1528.25 245.945 1527.65 245.672C1526.94 245.361 1526.16 245.208 1525.39 245.224C1524.61 245.239 1523.84 245.423 1523.15 245.763C1522.75 245.974 1522.3 246.085 1521.85 246.087C1520.03 246.087 1518.51 244.249 1518.19 241.829C1518.56 241.562 1518.87 241.229 1519.11 240.847C1520.17 239.123 1521.83 238.02 1523.68 238.02C1525.53 238.02 1527.18 239.112 1528.25 240.813C1528.57 241.33 1529.02 241.755 1529.55 242.047C1530.09 242.338 1530.69 242.486 1531.3 242.476H1531.35C1532.78 242.476 1534.05 243.64 1534.67 245.337Z" fill="black"/>
<path d="M1265.94 247.629L1262.99 249.497L1264.78 246.247C1264.27 245.841 1263.64 245.616 1262.99 245.608H1262.95C1262.74 245.61 1262.54 245.595 1262.34 245.562L1261.34 246.194L1261.76 245.433C1261.06 245.185 1260.44 244.72 1260.02 244.105L1258.23 245.246L1259.37 243.195C1258.9 242.581 1258.29 242.081 1257.6 241.731C1256.9 241.381 1256.14 241.189 1255.36 241.171C1253.5 241.171 1251.85 242.274 1250.79 243.998C1250.47 244.516 1250.03 244.94 1249.49 245.226C1248.95 245.513 1248.35 245.653 1247.74 245.631H1247.65C1245.59 245.631 1243.93 247.96 1243.93 250.829C1243.93 253.698 1245.59 256.023 1247.65 256.023C1248.1 256.022 1248.54 255.911 1248.94 255.7C1249.64 255.36 1250.41 255.176 1251.18 255.161C1251.96 255.145 1252.73 255.3 1253.44 255.612C1254.04 255.878 1254.69 256.016 1255.35 256.016C1256 256.016 1256.65 255.878 1257.25 255.612C1257.96 255.306 1258.72 255.155 1259.49 255.171C1260.26 255.186 1261.02 255.366 1261.71 255.7C1262.11 255.904 1262.55 256.012 1262.99 256.015C1265.05 256.015 1266.71 253.69 1266.71 250.821C1266.73 249.709 1266.46 248.611 1265.94 247.629V247.629Z" fill="#F2F2F2"/>
<path opacity="0.03" d="M1260.38 255.232C1259.31 255.026 1258.2 255.147 1257.19 255.578C1256.59 255.843 1255.94 255.98 1255.29 255.981C1254.62 255.981 1253.97 255.84 1253.36 255.567C1252.65 255.255 1251.88 255.102 1251.1 255.118C1250.32 255.134 1249.56 255.318 1248.86 255.658C1248.46 255.869 1248.02 255.98 1247.57 255.981C1245.74 255.981 1244.22 254.143 1243.91 251.723C1244.27 251.456 1244.58 251.123 1244.82 250.741C1245.89 249.018 1247.55 247.914 1249.39 247.914C1251.24 247.914 1252.89 249.006 1253.97 250.707C1254.29 251.224 1254.73 251.65 1255.27 251.941C1255.8 252.233 1256.4 252.381 1257.01 252.37H1257.06C1258.5 252.37 1259.77 253.535 1260.38 255.232Z" fill="black"/>
<path d="M1402.33 12.9877L1396.4 16.7322L1399.99 10.2136C1398.98 9.40375 1397.72 8.95519 1396.42 8.93883H1396.32C1395.91 8.94685 1395.5 8.91628 1395.1 8.8475L1393.09 10.1185L1393.95 8.55829C1392.53 8.06057 1391.3 7.12849 1390.44 5.89456L1386.86 8.17776L1389.12 4.06039C1387.03 1.54507 1384.2 0.00390625 1381.09 0.00390625C1377.36 0.00390625 1374.04 2.21861 1371.89 5.67385C1371.26 6.70856 1370.36 7.55648 1369.29 8.13133C1368.22 8.70617 1367.01 8.98742 1365.8 8.94644H1365.6C1361.48 8.94644 1358.14 13.608 1358.14 19.3616C1358.14 25.1153 1361.48 29.7768 1365.6 29.7768C1366.5 29.774 1367.39 29.5506 1368.19 29.1261C1369.6 28.4467 1371.13 28.0792 1372.69 28.0489C1374.24 28.0187 1375.79 28.3265 1377.22 28.9511C1378.42 29.4922 1379.73 29.7736 1381.05 29.7768C1382.37 29.7801 1383.68 29.5052 1384.89 28.9701C1386.31 28.3572 1387.84 28.0554 1389.38 28.0849C1390.92 28.1144 1392.44 28.4747 1393.83 29.1413C1394.63 29.5553 1395.51 29.7732 1396.4 29.7768C1400.52 29.7768 1403.86 25.1153 1403.86 19.3616C1403.89 17.1423 1403.36 14.9504 1402.33 12.9877V12.9877Z" fill="#F2F2F2"/>
<path opacity="0.03" d="M1391.18 28.2276C1389.03 27.821 1386.81 28.0621 1384.8 28.9202C1383.59 29.4596 1382.28 29.7384 1380.96 29.7384C1379.64 29.7384 1378.33 29.4596 1377.13 28.9202C1375.7 28.2938 1374.15 27.9851 1372.6 28.0153C1371.04 28.0455 1369.5 28.414 1368.1 29.0952C1367.3 29.5184 1366.41 29.7417 1365.5 29.7459C1361.85 29.7459 1358.8 26.0623 1358.17 21.2067C1358.9 20.6759 1359.52 20.0077 1360 19.2394C1362.14 15.7879 1365.47 13.5732 1369.2 13.5732C1372.92 13.5732 1376.21 15.7423 1378.35 19.1671C1378.99 20.2021 1379.89 21.0536 1380.96 21.6385C1382.03 22.2234 1383.23 22.5217 1384.45 22.5044H1384.54C1387.44 22.4968 1389.96 24.8256 1391.18 28.2276Z" fill="black"/>
<path d="M1604.22 78.2907L1601.27 80.1591L1603.06 76.9093C1602.55 76.5031 1601.93 76.278 1601.28 76.27H1601.23C1601.03 76.2721 1600.82 76.2569 1600.62 76.2244L1599.62 76.8561L1600.05 76.095C1599.34 75.8471 1598.73 75.3824 1598.3 74.7669L1596.51 75.9085L1597.66 73.8574C1597.18 73.2435 1596.57 72.7432 1595.88 72.393C1595.19 72.0428 1594.42 71.8515 1593.65 71.833C1591.79 71.833 1590.13 72.9366 1589.08 74.6604C1588.76 75.1778 1588.31 75.6017 1587.77 75.8885C1587.24 76.1754 1586.64 76.3149 1586.03 76.2929H1585.93C1583.88 76.2929 1582.21 78.6217 1582.21 81.491C1582.21 84.3602 1583.88 86.6852 1585.93 86.6852C1586.38 86.6838 1586.83 86.5728 1587.22 86.3618C1587.92 86.0218 1588.69 85.8378 1589.47 85.8227C1590.24 85.8076 1591.02 85.9617 1591.73 86.2743C1592.33 86.5405 1592.98 86.6781 1593.63 86.6781C1594.29 86.6781 1594.94 86.5405 1595.54 86.2743C1596.24 85.9682 1597.01 85.8176 1597.78 85.8327C1598.55 85.8478 1599.3 86.0282 1600 86.3618C1600.39 86.5664 1600.83 86.6746 1601.28 86.6776C1603.33 86.6776 1605 84.3526 1605 81.4833C1605.01 80.3712 1604.74 79.2732 1604.22 78.2907V78.2907Z" fill="#F2F2F2"/>
<path opacity="0.03" d="M1598.66 85.8938C1597.59 85.6885 1596.48 85.8091 1595.48 86.2401C1594.88 86.5048 1594.23 86.6422 1593.57 86.6435C1592.91 86.6406 1592.27 86.4993 1591.67 86.2287C1590.95 85.9175 1590.18 85.7644 1589.41 85.7802C1588.63 85.796 1587.86 85.9801 1587.16 86.32C1586.77 86.531 1586.32 86.642 1585.87 86.6435C1584.05 86.6435 1582.53 84.8055 1582.21 82.3853C1582.58 82.1186 1582.89 81.7854 1583.13 81.4035C1584.19 79.6797 1585.85 78.5762 1587.7 78.5762C1589.54 78.5762 1591.19 79.6683 1592.27 81.3693C1592.59 81.8837 1593.03 82.3072 1593.56 82.5986C1594.09 82.89 1594.69 83.0393 1595.3 83.0322H1595.35C1596.78 83.0322 1598.05 84.1967 1598.66 85.8938Z" fill="black"/>
</g>
<g clip-path="url(#clip2_5_799)">
<path d="M542.337 655.358C545.793 656.318 549.481 655.977 552.703 654.399C555.924 652.822 558.455 650.117 559.816 646.799C561.176 643.48 561.272 639.777 560.085 636.392C558.899 633.007 556.511 630.175 553.376 628.433L522.275 593.149L495.97 598.832L532.968 635.07C532.058 636.997 531.582 639.1 531.573 641.23C531.564 643.361 532.023 645.467 532.916 647.401C533.809 649.336 535.116 651.051 536.743 652.425C538.371 653.8 540.28 654.801 542.337 655.358L542.337 655.358Z" fill="#A0616A"/>
<path d="M440.016 529.04L517.531 626.34L541.159 615.492L450.049 473.647L440.016 529.04Z" fill="#3F3D56"/>
<path d="M792.413 865.321C797.271 855.897 794.632 844.007 788.585 835.297C782.538 826.587 773.609 820.381 764.876 814.368L752.733 806.006L758.533 835.118C760.491 844.961 762.904 855.59 770.591 862.042C773.609 864.517 777.214 866.172 781.058 866.849C784.902 867.526 788.855 867.202 792.538 865.908" fill="#E6E6E6"/>
<path d="M791.496 901.153C791.433 901.375 791.285 901.564 791.084 901.678C790.883 901.793 790.645 901.823 790.422 901.763C790.202 901.695 790.017 901.546 789.903 901.347C789.79 901.147 789.757 900.912 789.812 900.689C790.489 895.759 791.16 890.826 791.477 885.859C792.005 877.646 791.517 869.217 788.477 861.485C785.724 854.532 780.835 848.633 774.514 844.638C773.566 844.04 774.442 842.531 775.395 843.131C779.048 845.432 782.272 848.354 784.922 851.764C789.914 858.2 792.365 866.049 793.131 874.085C793.993 883.134 792.729 892.201 791.5 901.154L791.496 901.153Z" fill="#F2F2F2"/>
<path d="M667.903 845.862C706.161 869.405 693.408 900.796 693.408 900.796L667.903 845.862Z" fill="#E6E6E6"/>
<path d="M743.092 878.043C712.982 877.851 709.092 900.225 709.092 900.225L743.092 878.043Z" fill="#E6E6E6"/>
<path d="M257.333 902.651C262.028 902.651 265.835 898.845 265.835 894.149C265.835 889.454 262.028 885.647 257.333 885.647C252.637 885.647 248.831 889.454 248.831 894.149C248.831 898.845 252.637 902.651 257.333 902.651Z" fill="#3F3D56"/>
<path d="M263.516 722.953C263.516 722.953 283.612 661.894 285.157 657.643C286.703 653.392 302.934 660.348 307.185 661.507C311.436 662.666 310.277 666.917 310.277 666.917L288.635 729.522L295.205 732.614L315.3 669.623C326.894 657.643 318.392 656.87 318.392 656.87C318.392 656.87 293.659 648.368 284.384 647.595C275.11 646.822 278.588 658.029 278.588 658.029L256.174 717.542L263.516 722.953Z" fill="#3F3D56"/>
<path d="M311.822 737.637L311.818 737.633C308.967 733.545 304.918 730.441 300.229 728.749C300.062 728.687 299.869 728.618 299.649 728.54C289.002 724.819 214.823 704.789 214.823 704.789C214.823 704.789 200.138 699.379 193.569 714.064C186.999 728.749 147.968 850.481 147.968 850.481C147.968 850.481 224.307 891.305 246.562 895.75C247.936 896.081 249.354 896.193 250.763 896.082C254.546 895.557 258.27 894.668 261.881 893.427C265.876 892.125 269.676 890.288 273.177 887.966L316.46 758.506C316.46 758.506 322.643 744.207 311.822 737.637Z" fill="#0EA5E9"/>
<path d="M311.822 737.638L311.818 737.634C308.967 733.545 304.918 730.441 300.229 728.75C300.063 728.688 299.869 728.618 299.649 728.541C303.15 734.678 304.48 744.208 304.48 744.208C304.48 744.208 261.97 870.577 258.106 882.557C255.161 891.689 249.221 894.792 246.562 895.75C247.937 896.081 249.354 896.193 250.763 896.083C254.546 895.558 258.27 894.669 261.881 893.428C262.938 892.217 263.873 890.905 264.675 889.513C264.675 889.513 307.958 760.052 311.822 753.869C315.687 747.686 311.822 737.638 311.822 737.638Z" fill="#3F3D56"/>
<path d="M231.248 902.845C235.943 902.845 239.749 899.038 239.749 894.343C239.749 889.647 235.943 885.841 231.248 885.841C226.552 885.841 222.746 889.647 222.746 894.343C222.746 899.038 226.552 902.845 231.248 902.845Z" fill="#3F3D56"/>
<path d="M148.74 867.099C153.436 867.099 157.242 863.292 157.242 858.597C157.242 853.901 153.436 850.095 148.74 850.095C144.045 850.095 140.239 853.901 140.239 858.597C140.239 863.292 144.045 867.099 148.74 867.099Z" fill="#3F3D56"/>
<path d="M298.599 662.818C295.18 663.901 291.482 663.691 288.206 662.23C284.93 660.768 282.305 658.155 280.827 654.887C279.349 651.619 279.121 647.922 280.186 644.497C281.252 641.072 283.537 638.157 286.608 636.304L316.432 599.935L342.923 604.677L307.24 642.21C308.217 644.103 308.768 646.187 308.853 648.316C308.937 650.445 308.554 652.566 307.731 654.531C306.907 656.496 305.662 658.256 304.085 659.688C302.507 661.12 300.635 662.188 298.599 662.818L298.599 662.818Z" fill="#A0616A"/>
<path d="M501.866 822.846L520.34 822.556L518.118 885.522H501.869L501.866 822.846Z" fill="#A0616A"/>
<path d="M497.724 880.217L529.725 880.216H529.727C535.135 880.216 540.322 882.365 544.147 886.189C547.971 890.014 550.12 895.201 550.12 900.609V901.272L497.725 901.274L497.724 880.217Z" fill="#2F2E41"/>
<path d="M379.549 806.146L399.73 819.102L359.362 867.667L345.688 858.888L379.549 806.146Z" fill="#A0616A"/>
<path d="M345.066 852.185L371.995 869.473L371.997 869.474C376.548 872.396 379.751 877.007 380.903 882.291C382.055 887.576 381.061 893.101 378.139 897.653L377.781 898.211L333.691 869.904L345.066 852.185Z" fill="#2F2E41"/>
<path d="M372.359 613.875C372.359 613.875 417.199 464.948 431.609 462.935C446.019 460.923 469.237 501.148 469.237 501.148C499.34 539.557 530.381 663.969 530.381 663.969C530.381 663.969 478.635 667.207 440.808 687.333C402.981 707.458 358.34 686.314 358.34 686.314L372.359 613.875Z" fill="#3F3D56"/>
<path opacity="0.1" d="M372.359 613.876C372.359 613.876 417.199 464.948 431.609 462.936C446.019 460.923 463.34 501.557 463.34 501.557C478.34 563.557 530.381 663.97 530.381 663.97C530.381 663.97 478.635 667.208 440.808 687.333C402.981 707.458 358.34 686.314 358.34 686.314L372.359 613.876Z" fill="black"/>
<path d="M409.147 569.317V644.152L400.34 752.556L356.34 834.556L377.34 849.556L437.34 771.556L461.071 694.107L498.34 865.556L526.34 863.556L506.894 625.845L469.993 558.935L409.147 569.317Z" fill="#2F2E41"/>
<path d="M454.357 496.935C468.357 510.935 455.357 525.935 455.357 525.935L471.357 561.935L408.357 578.935L386.34 480.556L401.34 464.556C431.34 463.556 431.357 462.935 431.357 462.935C436.613 468.078 454.357 496.935 454.357 496.935Z" fill="#CCCCCC"/>
<path d="M383.455 470.621C378.247 474.451 374.594 480.03 373.166 486.336C371.737 492.641 372.629 499.249 375.678 504.95C382.895 518.728 390.659 540.07 386.656 563.5C379.411 605.902 356.189 638.118 343.254 648.464C338.75 652.065 338.593 657.311 339.254 661.076C341.101 671.597 351.302 683.535 358.357 685.929C358.832 686.086 359.33 686.164 359.83 686.16C371.292 686.164 399.486 649.659 431.885 578.35C452.063 533.939 437.418 498.33 421.58 476.278C419.501 473.392 416.87 470.948 413.84 469.087C410.81 467.225 407.44 465.984 403.926 465.434C400.413 464.884 396.825 465.036 393.371 465.883C389.916 466.729 386.664 468.253 383.803 470.365L383.455 470.621Z" fill="#3F3D56"/>
<path d="M413.34 513.556L322.356 632.935L298.356 622.935L384.356 477.935L413.34 513.556Z" fill="#3F3D56"/>
<path d="M440.328 449.974H377.749C376.462 449.973 375.228 449.461 374.318 448.551C373.407 447.64 372.895 446.406 372.894 445.119V418.145C372.891 413.397 373.824 408.695 375.64 404.307C377.455 399.92 380.117 395.933 383.474 392.575C386.83 389.216 390.816 386.552 395.202 384.735C399.589 382.917 404.29 381.981 409.039 381.981C413.787 381.981 418.488 382.917 422.875 384.735C427.262 386.552 431.247 389.216 434.604 392.575C437.96 395.933 440.622 399.92 442.438 404.307C444.253 408.695 445.186 413.397 445.183 418.145V445.119C445.182 446.406 444.67 447.64 443.76 448.551C442.849 449.461 441.615 449.973 440.328 449.974V449.974Z" fill="#2F2E41"/>
<path d="M439.719 435.557C446.739 422.715 442.019 406.614 429.177 399.593C416.335 392.573 400.233 397.293 393.213 410.135C386.193 422.977 390.913 439.079 403.755 446.099C416.597 453.119 432.698 448.399 439.719 435.557Z" fill="#A0616A"/>
<path d="M453.734 420.843H415.469L415.076 415.349L413.114 420.843H407.222L406.445 409.954L402.556 420.843H391.155V420.303C391.164 412.723 394.179 405.455 399.539 400.095C404.899 394.735 412.167 391.719 419.747 391.711H425.142C432.723 391.719 439.99 394.735 445.35 400.095C450.711 405.455 453.726 412.723 453.734 420.303V420.843Z" fill="#2F2E41"/>
<path d="M415.156 455.009C414.868 455.008 414.58 454.983 414.296 454.933L386.277 449.989V403.681H417.121L416.357 404.571C405.733 416.962 413.737 437.054 419.454 447.928C419.875 448.725 420.063 449.624 419.996 450.522C419.929 451.421 419.609 452.282 419.074 453.007C418.626 453.627 418.037 454.131 417.356 454.479C416.675 454.827 415.921 455.009 415.156 455.009Z" fill="#2F2E41"/>
<path d="M0 901.845C0 901.58 0.105356 901.325 0.292892 901.138C0.480429 900.95 0.734784 900.845 1 900.845H849C849.265 900.845 849.52 900.95 849.707 901.138C849.895 901.325 850 901.58 850 901.845C850 902.11 849.895 902.364 849.707 902.552C849.52 902.739 849.265 902.845 849 902.845H1C0.734784 902.845 0.480429 902.739 0.292892 902.552C0.105356 902.364 0 902.11 0 901.845Z" fill="#CBCBCB"/>
</g>
<defs>
<clipPath id="clip0_5_799">
<rect width="963" height="636" fill="white" transform="translate(480 137)"/>
</clipPath>
<clipPath id="clip1_5_799">
<rect width="405" height="256" fill="white" transform="translate(1200)"/>
</clipPath>
<clipPath id="clip2_5_799">
<rect width="850" height="520.845" fill="white" transform="translate(0 382)"/>
</clipPath>
</defs>
</svg>
